<?xml version="1.0"?>
<svg id="Layer_1" xmlns="http://www.w3.org/2000/svg" version="1.1" viewBox="0 0 221.21 121.65">
  
  <defs>
    
  </defs>
  <g>
    <path class="st3" d="M40.81,104.13l3.17-7.67h1.29l3.17,7.67h-1.26l-.61-1.6h-3.87l-.61,1.6h-1.26ZM46.2,101.54l-1.58-3.75-1.58,3.75h3.16Z"></path>
    <path class="st3" d="M50.18,104.13v-7.67h1.19l4.67,5.84v-5.84h1.19v7.67h-1.2l-4.66-5.79v5.79h-1.19Z"></path>
    <path class="st3" d="M62.33,104.13l3.17-7.67h1.29l3.17,7.67h-1.26l-.61-1.6h-3.87l-.61,1.6h-1.26ZM67.72,101.54l-1.58-3.75-1.58,3.75h3.16Z"></path>
    <path class="st3" d="M71.7,96.46h1.41l2.65,5.45,2.65-5.45h1.4v7.67h-1.2v-5.49l-2.43,4.95h-.85l-2.43-4.95v5.49h-1.2v-7.67Z"></path>
    <path class="st3" d="M82.86,96.46l1.91,6.6,1.86-6.48h1.27l1.86,6.48,1.9-6.6h1.19l-2.13,7.67h-1.91l-1.54-5.68-1.54,5.68h-1.91l-2.13-7.67h1.19Z"></path>
    <path class="st3" d="M95.9,104.13h-1.19v-7.67h1.19v7.67Z"></path>
    <path class="st3" d="M98.58,104.13v-7.67h1.19l4.67,5.84v-5.84h1.19v7.67h-1.2l-4.66-5.79v5.79h-1.19Z"></path>
    <path class="st3" d="M108.73,101.88c.37.75,1.07,1.29,2.11,1.29.89,0,1.58-.42,1.58-1.1s-.61-.93-1.74-1.29c-1.46-.47-2.6-.95-2.59-2.31.01-1.4,1.33-2.13,2.61-2.13,1.42,0,2.32.76,2.75,1.58l-.92.64c-.33-.59-.95-1.15-1.83-1.15-.73,0-1.42.37-1.42,1.05s.63.86,1.71,1.22c1.43.49,2.62.88,2.62,2.37s-1.43,2.17-2.74,2.17c-1.5,0-2.58-.77-3.02-1.74l.89-.62Z"></path>
    <path class="st3" d="M122.59,96.35c1.39,0,2.63.68,3.37,1.87l-.92.64c-.62-.93-1.44-1.39-2.45-1.39-1.58,0-2.7,1.19-2.7,2.82s1.15,2.82,2.73,2.82c1.02,0,1.89-.47,2.48-1.36l.89.62c-.72,1.17-1.96,1.86-3.37,1.86-2.22,0-3.97-1.71-3.97-3.95s1.72-3.95,3.94-3.95Z"></path>
    <path class="st3" d="M127.48,100.3c0-2.3,1.7-3.96,3.96-3.96s3.96,1.66,3.96,3.96-1.69,3.93-3.96,3.93-3.96-1.62-3.96-3.93ZM131.44,103.11c1.64,0,2.72-1.13,2.72-2.82s-1.08-2.82-2.72-2.82-2.72,1.17-2.72,2.82,1.1,2.82,2.72,2.82Z"></path>
    <path class="st3" d="M137.59,96.46h1.41l2.65,5.45,2.65-5.45h1.4v7.67h-1.2v-5.49l-2.43,4.95h-.85l-2.43-4.95v5.49h-1.2v-7.67Z"></path>
    <path class="st3" d="M148.39,104.13v-7.66h3.15c1.58,0,2.6.98,2.6,2.4s-1.02,2.4-2.6,2.4h-1.96v2.86h-1.19ZM149.58,100.18h1.91c.93,0,1.42-.59,1.42-1.32s-.49-1.32-1.42-1.32h-1.91v2.64Z"></path>
    <path class="st3" d="M155.21,104.13l3.17-7.67h1.29l3.17,7.67h-1.26l-.61-1.6h-3.87l-.61,1.6h-1.26ZM160.6,101.54l-1.58-3.75-1.58,3.75h3.16Z"></path>
    <path class="st3" d="M164.58,104.13v-7.67h1.19l4.67,5.84v-5.84h1.19v7.67h-1.2l-4.66-5.79v5.79h-1.19Z"></path>
    <path class="st3" d="M174.82,96.46l2.08,3.47,2.09-3.47h1.41l-2.91,4.72v2.95h-1.18v-2.95l-2.91-4.72h1.41Z"></path>
  </g>
  <g>
    <path class="st1" d="M38.7,74.21V31.94h8.76v5.33c1.41-2.16,5.42-6.21,12.99-6.21,11.62,0,17.75,7.22,17.75,17.48v25.67h-8.72v-23.82c0-7-3.83-11.05-10.39-11.05s-11.67,4.05-11.67,11.05v23.82h-8.72Z"></path>
    <path class="st1" d="M132.87,30.09c12.33,0,20.35,9.16,20.35,20.48,0,1.32-.09,2.69-.35,4.05h-32.81c.4,6.34,5.81,11.32,13.12,11.32,5.28,0,9.51-2.25,12.68-7.22l6.43,4.67c-3.92,7.05-11.63,10.75-19.11,10.75-12.77,0-22.15-9.42-22.15-21.97s9.03-22.06,21.84-22.06ZM144.37,48.1c-.53-5.94-5.5-10.13-11.58-10.13-6.47,0-11.41,4.18-12.51,10.13h24.09Z"></path>
    <path class="st1" d="M156.62,74.21V31.94h8.76v5.77c2.38-4.62,6.38-6.65,11.01-6.65,3.3,0,5.81,1.06,5.81,1.06l-.92,8.01c-.48-.18-2.38-.97-5.15-.97-4.67,0-10.75,2.47-10.75,12.02v23.03h-8.76Z"></path>
    <g>
      <path class="st3" d="M174.77,64.52c1.76,0,2.91.99,2.91,2.58,0,1.25-.72,2.14-1.9,2.45l2.15,3.67h-1.25l-2.04-3.54h-2.53v3.54h-1.06v-8.7h3.72ZM172.11,65.48v3.26h2.62c1.22,0,1.85-.65,1.85-1.64s-.63-1.62-1.85-1.62h-2.62Z"></path>
      <path class="st3" d="M179.53,64.52h1.06v8.7h-1.06v-8.7Z"></path>
      <path class="st3" d="M183.21,70.91c.45.81,1.27,1.49,2.55,1.49,1.17,0,2.01-.56,2.01-1.37,0-.86-.72-1.22-2.17-1.71-1.61-.54-2.85-1.13-2.85-2.6,0-1.55,1.47-2.32,2.85-2.32,1.68,0,2.62.94,3.04,1.66l-.83.6c-.33-.52-1.01-1.29-2.22-1.29-.91,0-1.74.45-1.74,1.34s.76,1.15,2.08,1.6c1.63.56,2.94,1.14,2.94,2.72,0,1.37-1.31,2.34-3.11,2.34-1.67,0-2.86-.85-3.35-1.88l.79-.57Z"></path>
      <path class="st3" d="M193.4,68.88l-1.67,1.79v2.55h-1.06v-8.7h1.06v4.75l4.4-4.75h1.36l-3.35,3.61,3.53,5.09h-1.3l-2.98-4.34Z"></path>
    </g>
    <path class="st1" d="M108.57,65.37v8.2c-14.75,2.82-19.35-5.08-20.43-9.18v-22.98c-3.66-.41-6.71-1.21-8.97-1.96v-7.43c3.85,1.26,10.04,2.73,17.6,2.11,4.67-.39,8.58-1.46,11.51-2.53v7.42c-2.94,1.07-6.85,2.15-11.53,2.53h-.13s-.07,18.88-.07,18.88c0,2.6.84,8.07,12.01,4.95h0Z"></path>
    <path class="st1" d="M32.29,74.28h-8.76V31.95h8.76v42.34Z"></path>
    <path class="st2" d="M97.21,17.41v6.52c0,.14,0,.29-.02.43-.1,1.15-.61,2.18-1.38,2.95-.86.87-2.06,1.4-3.38,1.4-2.49,0-4.55-1.91-4.76-4.35l-.02-.29v-6.66h9.56Z"></path>
  </g>
  <rect class="st0" x="19.95" y="85.12" width="181.31" height="1.4"></rect>
</svg>